<svg width="55" height="61" viewBox="0 0 55 61" fill="none" xmlns="http://www.w3.org/2000/svg">
<path d="M34.9469 0.0109342C34.2962 0.0449219 33.6713 0.146885 33.0891 0.313425C31.1935 0.857228 29.1302 1.74091 26.4795 3.1463C25.1662 3.84475 25.0566 3.90592 24.9299 4.03508C24.7518 4.21351 24.6302 4.43953 24.5943 4.65195C24.5669 4.82699 24.5789 5.8925 24.6388 8.32602C24.6696 9.64814 24.6799 9.79089 24.7347 9.89116C24.7826 9.97783 24.834 10.0084 24.9333 10.0084C25.0463 10.0084 25.1593 9.95743 25.5908 9.70932C26.2826 9.30997 26.1508 9.37284 28.7569 8.21896C30.9059 7.26901 33.1062 6.33095 33.4966 6.20349C34.1815 5.97747 34.7603 5.94688 35.3271 6.10833C35.4075 6.13212 35.4178 6.14061 35.4349 6.19839C35.4435 6.23238 35.4521 6.27317 35.4521 6.28846C35.4521 6.32925 35.0103 6.53317 34.5445 6.70991C34.3236 6.79318 34.0805 6.88834 34.0052 6.92063C33.2723 7.23332 32.8887 7.63437 32.7278 8.25295C32.6781 8.44328 32.673 8.79675 32.7175 8.97519C32.8733 9.59886 33.3374 10.0356 34 10.1801C34.387 10.2633 35.1199 10.2599 35.7603 10.1682C36.0223 10.1308 37.3681 9.86227 38.7654 9.56657C41.3082 9.02957 42.4297 8.82054 43.0633 8.76786C43.3664 8.74237 44.0376 8.74747 44.3424 8.77636C45.3595 8.87323 46.303 9.18251 47.1643 9.70422C47.4862 9.89795 47.5427 9.92854 47.8698 10.0781L48.1609 10.2123L48.2362 10.1495C48.2876 10.107 48.3081 10.0764 48.3013 10.0594C48.2961 10.0458 48.1968 9.78919 48.0804 9.4901C47.8252 8.82564 47.7602 8.6761 47.6026 8.36001C46.8184 6.80168 45.5307 5.6274 43.8664 4.95105C42.9246 4.56868 41.8595 4.32567 40.6917 4.22371C40.1352 4.17443 39.7106 4.15913 38.5 4.14724C37.4195 4.13534 37.2842 4.13194 37.2157 4.10475C37.0856 4.05547 37.0137 3.99599 36.964 3.89233C36.9058 3.77677 36.9058 3.79207 36.9366 2.36118C36.952 1.69842 36.952 1.34665 36.9418 1.26508C36.8596 0.697485 36.5411 0.276039 36.0651 0.104401C35.7979 0.00923535 35.4829 -0.0179553 34.9469 0.0109342ZM35.4229 1.31266C35.5206 1.37044 35.5976 1.4792 35.6199 1.59306C35.6301 1.64234 35.6319 2.18785 35.625 2.97296L35.6147 4.27299L35.5651 4.37495C35.536 4.43273 35.4692 4.5228 35.411 4.58058L35.3065 4.68424L34.9897 4.69614C33.6678 4.74202 32.6199 5.01732 30.5548 5.86192C29.9692 6.10153 29.6542 6.23748 29.2244 6.43291C28.9264 6.56886 28.6268 6.71331 26.9162 7.54091C26.3836 7.79921 25.9641 7.98615 25.9213 7.98615C25.9145 7.98615 25.9128 7.34548 25.9179 6.56206L25.9247 5.13628L25.971 5.04451C26.0583 4.86778 26.1491 4.8015 26.6936 4.5143C29.4196 3.08002 31.0857 2.3272 32.7808 1.7664C33.4606 1.54038 33.8014 1.45541 34.5274 1.33306C34.8904 1.27018 34.9966 1.25828 35.1524 1.26168C35.3253 1.26508 35.3476 1.26848 35.4229 1.31266ZM39.7311 5.42857C41.3989 5.47276 42.8886 5.85512 44.1095 6.55017C44.5342 6.79318 44.8373 7.0107 45.1575 7.30639L45.315 7.45254L45.2927 7.51882C45.2705 7.58169 45.2636 7.58679 45.2105 7.58339C45.178 7.58169 44.9297 7.5579 44.6557 7.53241C44.2157 7.48993 44.0855 7.48483 43.5171 7.48483C42.8475 7.48483 42.6746 7.49502 42.0958 7.5715C41.4486 7.65647 40.8801 7.76693 39.577 8.06092C37.9092 8.43648 36.9058 8.63021 35.4623 8.85283C34.9709 8.92761 34.9435 8.931 34.7843 8.89702C34.6884 8.87662 34.0891 8.6727 34.0651 8.65231C34.0514 8.64041 34.5086 8.21216 34.6558 8.1017C34.8442 7.95896 35.0171 7.88248 35.3596 7.79242C35.6849 7.70575 35.8887 7.63437 36.1045 7.52731C36.7808 7.19083 37.1404 6.68612 37.2329 5.94009C37.2431 5.85682 37.2637 5.76505 37.2791 5.73616C37.3253 5.64609 37.4195 5.54073 37.4948 5.49825C37.5633 5.45916 37.589 5.45576 38.0205 5.43707C38.7243 5.40818 38.9178 5.40648 39.7311 5.42857Z" fill="black"/>
<path d="M26.1457 12.3366C24.9882 12.4046 23.9248 12.5626 22.7861 12.8379C19.8392 13.5516 17.3427 14.8024 15.281 16.5952C14.9917 16.8467 14.3324 17.4908 14.0653 17.7831C12.6526 19.3261 11.5448 21.1207 10.704 23.2211C10.3239 24.1711 10.1647 24.7795 9.83589 26.5553C9.70233 27.2742 9.60987 27.733 9.54309 28.0219C9.45576 28.4009 9.35302 28.6082 9.16809 28.7781C8.87871 29.0449 8.39412 29.5394 8.22803 29.7383C7.75201 30.3042 7.40441 30.8327 7.05167 31.5294C6.83592 31.9543 6.77941 32.0443 6.68695 32.1072C6.53797 32.2058 6.38729 32.2075 6.0688 32.1106C5.59106 31.9679 5.29826 31.9152 4.89586 31.9016C3.91471 31.8693 2.99006 32.2024 2.07397 32.9195C1.84452 33.0997 1.35137 33.5942 1.18699 33.8083C0.714393 34.4252 0.411314 35.0557 0.214398 35.8357C0.0859742 36.3421 0.0054954 36.9624 0.000358454 37.462C-0.00135386 37.6897 0.00207077 37.7237 0.0328924 37.7764C0.0808372 37.8545 0.14933 37.8919 0.291452 37.9123C0.368506 37.9225 2.29143 37.9293 5.82051 37.9293C11.7879 37.9293 11.3376 37.9208 11.5551 38.0364C11.6852 38.1043 11.8119 38.2284 11.9146 38.3898C12.3941 39.1359 12.5499 39.3653 12.8821 39.8071C13.7143 40.9134 14.6937 41.9314 15.8324 42.8762C16.8769 43.7412 17.5738 44.4855 18.2725 45.4831C19.0618 46.6098 19.7091 47.9914 20.1201 49.4273C20.543 50.9075 20.8033 52.6018 21.0515 55.4924C21.1183 56.2776 21.156 56.5563 21.2245 56.8095C21.3718 57.3414 21.6235 57.8206 21.9728 58.237C22.2416 58.5564 22.6868 58.9524 23.1371 59.2719C23.983 59.8718 24.8649 60.2218 25.7501 60.3119C26.0087 60.3374 26.5635 60.3238 26.8135 60.2847C27.0772 60.2456 27.4744 60.142 27.7364 60.0451C28.1714 59.8871 28.7433 59.5761 29.1337 59.2872C29.6748 58.8844 30.1953 58.3287 30.5001 57.8274C30.7432 57.423 30.8083 57.2088 30.923 56.439C30.9556 56.2113 31.0669 55.6029 31.1713 55.088C31.2741 54.5714 31.4213 53.8322 31.4967 53.4447C31.9436 51.1692 32.2775 50.0102 32.8151 48.8682C33.3734 47.6872 34.1456 46.5469 35.2038 45.3471C35.7124 44.771 36.5326 43.9502 37.4983 43.053C38.2346 42.3681 39.4623 41.1513 39.8202 40.7503C40.5514 39.9329 41.0514 39.2735 41.5051 38.5343C41.7089 38.2029 41.8545 38.0636 42.0908 37.9752L42.1901 37.9378L48.3972 37.9293L54.6043 37.9208L54.7156 37.8834C54.9519 37.8036 55.0307 37.6336 54.9896 37.2835C54.9451 36.891 54.8184 36.2112 54.7122 35.7966C54.416 34.6359 53.8595 33.6995 53.0616 33.0181C52.3903 32.4454 51.6335 32.1089 50.7174 31.9781C50.4605 31.9407 49.791 31.9509 49.5016 31.9951C49.2157 32.0392 48.9297 32.1072 48.6284 32.2024C48.3595 32.2874 48.1952 32.306 48.0804 32.2636C47.952 32.2143 47.875 32.1089 47.7037 31.7503C47.1609 30.6101 46.5822 29.7825 45.7894 29.0143C45.3647 28.6014 45.0359 28.3397 44.5085 27.9913C44.1387 27.7466 44.0394 27.6378 43.9572 27.3846C43.9418 27.337 43.899 27.1195 43.8613 26.9003C43.5993 25.3709 43.1986 23.9859 42.6318 22.6603C42.4606 22.2593 42.0565 21.4402 41.851 21.0799C40.8562 19.3244 39.5925 17.8137 37.9949 16.4746C36.8768 15.5365 35.4675 14.6222 34.1593 13.985C32.2141 13.0401 30.3237 12.5286 28.1148 12.3519C27.8203 12.3281 26.471 12.3179 26.1457 12.3366ZM29.0772 14.4693C29.7518 14.7888 30.4042 15.2765 31.1474 16.014C31.6645 16.529 32.0549 16.9793 32.536 17.6217C34.7723 20.6024 36.3066 24.5195 36.3083 27.2572C36.3083 27.6259 36.2552 28.2598 36.2124 28.4026C36.2055 28.4247 36.1439 28.3295 36.0052 28.0797C35.5343 27.2283 35.5001 27.1739 35.06 26.5434C34.5189 25.7702 34.1936 25.3607 33.7603 24.9069C33.3939 24.5229 33.2124 24.251 33.0429 23.8329C32.9778 23.6715 32.9247 23.4573 32.8306 22.9832C32.3699 20.6415 31.6576 18.7178 30.5943 16.9453C30.1097 16.1381 29.4453 15.2459 28.8169 14.5628C28.6748 14.4064 28.6474 14.3707 28.6303 14.313C28.6183 14.2773 28.6217 14.2773 28.7518 14.3266C28.8255 14.3554 28.9727 14.4183 29.0772 14.4693ZM24.1115 15.5688C23.3032 16.7686 23.0789 17.1356 22.7039 17.8681C21.8478 19.5454 21.2878 21.3518 20.9591 23.5015C20.8683 24.0878 20.7879 24.3121 20.5361 24.686C20.3187 25.0072 19.7177 25.8552 18.9728 26.8901C18.3855 27.7075 18.1577 28.0253 18.0105 28.2394C18.0088 28.2428 17.966 28.2343 17.9163 28.2207C17.8255 28.1986 17.8238 28.1969 17.8101 28.1222C17.7896 28.0134 17.8084 27.2113 17.841 26.8833C17.9163 26.1033 18.0687 25.2978 18.3564 24.1575C18.8855 22.0605 19.7331 20.1317 20.8632 18.451C21.7861 17.0762 22.8461 15.9495 23.9214 15.2C24.1303 15.0539 24.6234 14.7497 24.6525 14.7497C24.6594 14.7497 24.4162 15.1185 24.1115 15.5688ZM18.8478 15.8067C18.7759 15.89 18.1372 16.6241 17.9369 16.8552C16.3427 18.7042 15.2348 20.7604 14.5362 23.1702C14.3307 23.8754 14.2091 24.4022 14.0379 25.3029C13.8273 26.4245 13.7742 26.6641 13.7194 26.7745C13.6424 26.9309 13.5807 26.9836 13.4198 27.021C13.0859 27.1008 12.4609 27.2368 11.7811 27.3778C11.3753 27.4611 11.0259 27.5359 11.0054 27.541C10.9677 27.5495 10.966 27.5461 10.966 27.4339C10.966 27.2691 11.0105 26.7881 11.0516 26.5043C11.3872 24.1949 12.6646 21.554 14.5174 19.338C15.7417 17.8732 17.1646 16.6802 18.6029 15.9104C18.7485 15.8339 18.8718 15.7693 18.8752 15.7693C18.8803 15.7693 18.8666 15.7863 18.8478 15.8067ZM36.4983 17.0541C36.9795 17.2937 37.4863 17.6828 38.0548 18.2487C40.2825 20.463 42.339 24.4532 42.4161 26.7083C42.4212 26.8799 42.4195 27.0023 42.411 27.0023C42.4024 27.0023 42.1712 26.9836 41.899 26.9598C41.0822 26.8884 40.6387 26.8323 40.5565 26.7915C40.4897 26.7559 40.375 26.6284 40.3271 26.5315C40.2791 26.4381 40.1815 26.0472 39.9469 25.0157C39.5822 23.4149 39.4367 22.8575 39.185 22.108C38.6559 20.5344 37.8374 18.9948 36.8134 17.6489C36.673 17.4636 36.5326 17.2767 36.5035 17.2325C36.4281 17.1186 36.3562 16.9929 36.3682 16.9929C36.3733 16.9929 36.4316 17.0201 36.4983 17.0541ZM27.6782 23.2823C30.1525 23.4981 32.4282 24.946 33.9847 27.2912C34.459 28.0083 34.8682 28.8172 35.209 29.7213C35.3357 30.0578 35.5685 30.6203 35.5908 30.6457C35.6096 30.6678 36.0685 30.2974 36.3254 30.0527C37.0137 29.3967 37.4692 29.0687 38.149 28.7356C38.5497 28.5385 38.8271 28.4365 39.2278 28.3363C40.4041 28.0423 41.6832 28.1239 42.7637 28.5589C43.7996 28.977 44.7688 29.7434 45.5976 30.8004C46.226 31.6008 46.7414 32.6833 47.1044 33.9646C47.2089 34.3334 47.2945 34.466 47.4263 34.466C47.5222 34.466 47.6352 34.3929 47.8578 34.1873C48.5273 33.5721 49.202 33.2645 49.9725 33.2271C51.2448 33.1659 52.4725 33.9833 53.1403 35.336C53.3715 35.8068 53.4931 36.1603 53.4794 36.3251C53.4691 36.439 53.4297 36.4967 53.3287 36.5477L53.2533 36.5868H27.3323C8.95063 36.5868 1.41131 36.5817 1.41131 36.5681C1.41131 36.5579 1.43014 36.4729 1.45583 36.3778C1.7024 35.3972 2.13561 34.6223 2.7315 34.0904C3.12019 33.7437 3.67841 33.4361 4.15101 33.307C4.49005 33.2152 4.9284 33.1948 5.28456 33.2543C5.82908 33.3478 6.42496 33.635 7.06708 34.1159L7.30338 34.2926L7.3342 34.2196C7.35132 34.1805 7.40098 34.0666 7.4455 33.9663C7.49002 33.8661 7.56708 33.6707 7.61673 33.533C8.19549 31.9458 8.95234 30.7749 9.97288 29.8827C10.9557 29.0245 12.0157 28.5334 13.2348 28.3686C13.5071 28.3312 14.24 28.3261 14.5019 28.3584C15.4831 28.4807 16.3341 28.7951 17.1475 29.3355C17.3821 29.4919 17.5464 29.6159 17.8495 29.8657C18.2502 30.1954 18.3855 30.2821 18.5002 30.2821C18.656 30.2821 18.7262 30.1716 18.9882 29.5259C19.2382 28.9124 19.3307 28.7034 19.5362 28.3023C20.0738 27.2555 20.68 26.4279 21.4813 25.6513C22.6217 24.545 24.0104 23.7564 25.3683 23.4438C25.8015 23.3435 26.2159 23.2874 26.745 23.2568C26.9008 23.2483 27.4556 23.2619 27.6782 23.2823ZM39.9281 37.931L40.2689 37.9259L40.2295 37.9922C40.2072 38.0279 40.0959 38.1978 39.9812 38.3712C39.4264 39.2123 38.9059 39.8394 38.1165 40.6245C37.3905 41.3434 36.6816 41.9467 35.7004 42.6808C35.2227 43.0377 35.1542 43.0869 35.1713 43.0598C35.1781 43.0462 35.4932 42.6383 35.8699 42.1523C36.8168 40.9304 37.625 39.8632 37.786 39.6202C37.9333 39.3959 38.1473 38.9829 38.2689 38.677C38.4435 38.2471 38.6524 38.0262 38.9641 37.9378C39.0394 37.9174 39.1079 37.914 39.3219 37.9242C39.4675 37.931 39.7397 37.9344 39.9281 37.931ZM14.8033 37.9446C15.2348 37.9565 15.2417 37.9565 15.3187 38.0007C15.4454 38.0755 15.5037 38.1587 15.7263 38.5751C16.4523 39.9431 17.1714 41.0069 18.0464 42.001C18.4831 42.499 19.1903 43.1753 19.6868 43.5679C19.8581 43.7055 19.9026 43.7582 19.8461 43.7582C19.8324 43.7582 19.7536 43.7378 19.6714 43.714C18.656 43.4234 16.7006 41.9704 15.067 40.2915C14.2502 39.4537 13.6681 38.7042 13.3941 38.1417C13.3496 38.0483 13.3119 37.9667 13.3119 37.9599C13.3119 37.9531 13.4917 37.9446 13.7109 37.9412C13.9283 37.9395 14.1663 37.9361 14.2365 37.9344C14.3067 37.9327 14.5619 37.9378 14.8033 37.9446ZM34.3511 38.0262C34.2912 38.5921 33.8203 39.5182 33.1148 40.4614C31.733 42.3052 29.7022 44.0556 28.2535 44.6504C28.0943 44.7167 27.7946 44.8152 27.7861 44.805C27.7827 44.8016 27.9487 44.5178 28.1542 44.1728C28.9796 42.7929 29.084 42.6077 29.5926 41.6255C29.9659 40.9032 30.4573 39.9108 30.9419 38.8997C31.0977 38.5768 31.2467 38.2794 31.2741 38.2369C31.3682 38.0908 31.5155 37.9786 31.6559 37.9463C31.6867 37.9378 32.3066 37.9327 33.036 37.931L34.3614 37.9293L34.3511 38.0262ZM22.1337 37.9871C22.2091 38.0228 22.3135 38.1315 22.3752 38.2369C22.3991 38.2777 22.4693 38.4493 22.5327 38.6176C23.2074 40.4036 24.0738 42.1846 25.0789 43.8551C25.2998 44.2221 25.3152 44.2544 25.3152 44.3343C25.3152 44.3819 25.3084 44.421 25.3015 44.421C25.2947 44.421 25.1765 44.353 25.0395 44.2714C23.0104 43.0445 21.4231 41.3536 20.1235 39.0339C19.9454 38.7178 19.5618 37.9786 19.5618 37.9548C19.5618 37.948 20.1269 37.9463 20.817 37.9497C21.983 37.9548 22.0755 37.9582 22.1337 37.9871ZM20.7194 45.6666C24.2793 46.931 27.9316 47.0584 31.548 46.0422C31.9402 45.9317 32.7038 45.6836 33.0514 45.5527C33.2261 45.4882 33.2929 45.4695 33.286 45.4882C33.2775 45.512 30.8135 49.9117 30.8032 49.9236C30.8015 49.9253 30.7073 49.8845 30.596 49.8318C29.1987 49.1758 28.0926 48.8326 26.9248 48.6915C26.5721 48.649 25.6525 48.649 25.2895 48.6915C24.5036 48.785 23.87 48.9447 23.1063 49.2421C22.7947 49.3628 22.2416 49.6245 21.9522 49.7876C21.8495 49.8454 21.7639 49.8913 21.7622 49.8896C21.7587 49.8845 19.882 45.4202 19.8581 45.3607C19.8546 45.3505 19.9659 45.3862 20.1064 45.4406C20.2468 45.495 20.5224 45.5969 20.7194 45.6666ZM26.959 50.0017C27.8871 50.1224 28.7039 50.3756 29.4162 50.7648C29.6234 50.8769 29.9042 51.052 29.9042 51.0673C29.9042 51.0724 29.846 51.1352 29.7741 51.2066C29.3648 51.6128 28.6422 51.9135 27.7039 52.0682C25.9094 52.3639 23.8666 52.0784 22.8409 51.3884C22.7228 51.3086 22.5207 51.142 22.5104 51.1148C22.5036 51.0961 22.668 50.9687 22.8923 50.8191C23.543 50.3858 24.4334 50.085 25.3238 49.9966C25.4282 49.9864 25.5361 49.9745 25.5635 49.9711C25.7039 49.9525 26.757 49.9762 26.959 50.0017ZM22.9334 52.8839C24.4265 53.4787 25.9128 53.6418 27.4813 53.3835C28.31 53.2476 29.2895 52.9451 30.1508 52.5593C30.2724 52.5049 30.3768 52.4624 30.3802 52.4675C30.4093 52.4947 29.6713 56.0278 29.4761 56.8044C29.3528 57.2904 29.2176 57.5283 28.9025 57.8138C28.0001 58.6261 27.0806 59.0374 26.1645 59.0391C25.3238 59.0391 24.5532 58.7213 23.7313 58.0347C23.5053 57.8461 23.043 57.3839 22.9128 57.2139C22.5276 56.7194 22.37 56.2419 22.37 55.5672C22.37 55.2104 22.3118 54.6428 22.1817 53.7251C22.0892 53.0776 22.0104 52.5015 22.0104 52.476C22.0104 52.4675 22.1594 52.5321 22.3409 52.6205C22.5207 52.7072 22.7878 52.8261 22.9334 52.8839Z" fill="black"/>
</svg>
